<svg version="1.1" id="Layer_1" xmlns="http://www.w3.org/2000/svg" xmlns:xlink="http://www.w3.org/1999/xlink" x="0px" y="0px"
	 width="100%" viewBox="0 0 512 512" enable-background="new 0 0 512 512" xml:space="preserve">
<path fill="#FFFFFF" opacity="1.000000" stroke="none" 
	d="
M1.000000,234.000000 
	C1.000000,156.367859 1.000000,78.735725 1.000000,1.051795 
	C171.556244,1.051795 342.112488,1.051795 513.000000,1.051795 
	C513.000000,79.354454 513.000000,157.709381 512.671692,236.367096 
	C511.129578,229.998154 507.378021,225.405731 501.060364,222.547699 
	C505.784393,215.479401 505.738342,208.144424 504.215363,200.466736 
	C502.913391,193.903107 501.876556,187.274582 501.028259,180.635666 
	C498.763519,162.911209 488.816956,149.609802 472.173309,144.048187 
	C468.541016,142.834427 465.129913,140.909439 461.701782,139.147049 
	C457.919708,137.202682 454.412964,134.601654 450.475494,133.103165 
	C437.998260,128.354584 425.074493,128.052109 411.610779,130.100555 
	C397.603516,132.587021 384.414246,136.377487 371.988129,142.641510 
	C367.303223,134.689407 366.589264,126.401924 366.859253,117.739571 
	C366.993561,113.430679 365.975555,108.999870 364.941406,104.755142 
	C359.890198,84.022072 348.130341,69.120888 327.184479,62.687382 
	C320.939331,60.769192 315.459686,57.884674 309.979431,54.250198 
	C303.484711,49.942890 296.072723,46.734715 288.677643,44.131260 
	C275.496704,39.490891 261.656586,41.028454 247.592514,41.090195 
	C243.179626,41.677418 239.161469,42.227512 235.192200,43.021988 
	C215.212830,47.021023 195.764511,52.697636 178.660233,64.153717 
	C155.038803,79.974861 142.197372,101.784172 144.155441,130.857422 
	C144.479385,135.667206 144.590057,140.005722 141.715637,144.001495 
	C132.614227,139.150635 123.566620,136.248993 113.487579,139.180756 
	C112.489082,139.471191 111.074844,139.107727 110.099991,138.586700 
	C97.548439,131.878098 84.405434,131.762695 70.536133,134.935898 
	C57.636864,137.064667 46.505714,142.424576 37.069328,150.594971 
	C17.418367,167.609543 8.282556,190.266953 4.006966,215.271988 
	C2.941384,221.503845 1.999006,227.756760 1.000000,234.000000 
z"/>
<path fill="#FFFFFF" opacity="1.000000" stroke="none" 
	d="
M513.000000,255.000000 
	C513.000000,340.963165 513.000000,426.926361 513.000000,512.944763 
	C342.443268,512.944763 171.886490,512.944763 1.000000,512.944763 
	C1.000000,431.978271 1.000000,350.956116 1.336463,269.673004 
	C4.263560,286.905914 11.642288,302.555450 20.411699,317.638733 
	C21.035019,318.710876 22.825884,319.835541 23.902212,319.687531 
	C24.805758,319.563293 25.785366,317.716064 26.166685,316.460205 
	C27.914082,310.705353 29.462980,304.890198 31.380880,299.250519 
	C40.371662,316.258820 53.477009,327.831299 71.949005,333.483337 
	C71.974144,340.283997 71.967514,346.618561 71.584534,352.827576 
	C62.797184,351.610687 55.744537,355.025574 48.991928,359.417084 
	C48.903217,359.474792 48.945530,359.734009 48.548309,359.951630 
	C34.807533,364.011353 24.401958,371.880920 16.750837,383.578186 
	C7.623629,397.532166 4.246885,412.859039 4.957470,429.338959 
	C5.244056,435.985474 5.027965,435.995880 11.614529,435.999817 
	C53.716831,436.025024 95.819130,436.049713 137.936798,436.484528 
	C137.301544,446.236298 136.476334,455.570374 136.059570,464.922638 
	C135.764603,471.541840 137.461929,472.997437 144.153534,472.998596 
	C181.963074,473.005096 219.772629,473.030396 257.582153,473.004852 
	C287.393372,472.984680 317.204498,472.900330 347.479126,472.911682 
	C355.910156,472.985657 363.878021,472.961731 371.845337,473.013428 
	C375.367432,473.036255 377.952148,471.257568 377.860626,467.947235 
	C377.566437,457.302338 376.740845,446.672150 376.581116,436.021820 
	C410.704987,435.956329 444.367950,435.905304 478.494202,435.914368 
	C487.094879,435.983032 495.242706,435.747589 503.365570,436.095306 
	C507.954742,436.291748 509.218781,434.272888 508.983643,430.262024 
	C508.627197,424.180359 508.912384,417.994965 507.893585,412.029785 
	C503.549103,386.592194 490.843994,367.798462 464.889587,359.573486 
	C458.518433,356.834137 452.338654,354.285736 446.022766,352.137512 
	C445.057831,351.809326 443.463531,353.331390 442.096741,353.533142 
	C442.047607,346.387238 442.062042,339.705811 442.449707,332.980469 
	C470.878479,325.008667 490.599182,295.898834 489.422668,270.081360 
	C498.296295,273.907745 503.884460,272.433258 508.854218,264.522461 
	C510.675079,261.624084 511.643005,258.189819 513.000000,255.000000 
z"/>
<path fill="#FFD659" opacity="1.000000" stroke="none" 
	d="
M31.083149,299.096710 
	C29.462980,304.890198 27.914082,310.705353 26.166685,316.460205 
	C25.785366,317.716064 24.805758,319.563293 23.902212,319.687531 
	C22.825884,319.835541 21.035019,318.710876 20.411699,317.638733 
	C11.642288,302.555450 4.263560,286.905914 1.336463,269.206024 
	C1.000000,257.645782 1.000000,246.291550 1.000000,234.468658 
	C1.999006,227.756760 2.941384,221.503845 4.006966,215.271988 
	C8.282556,190.266953 17.418367,167.609543 37.069328,150.594971 
	C46.505714,142.424576 57.636864,137.064667 70.723274,135.218781 
	C74.698486,139.285233 78.096527,143.090973 81.455009,146.931305 
	C84.158394,150.022552 86.365852,153.761765 89.585526,156.141891 
	C95.960968,160.854904 103.023758,164.625870 109.546371,169.154999 
	C118.539986,175.399948 125.203552,183.867477 131.053558,193.453217 
	C131.008728,200.249313 130.971054,206.597076 130.638275,212.790527 
	C125.286530,204.488968 118.984497,197.658478 110.353134,193.132095 
	C105.665535,190.673874 101.379807,190.510986 96.858154,193.647659 
	C93.329086,196.095795 89.361610,197.901077 85.696426,200.165955 
	C75.109100,206.708344 64.677185,213.461548 56.796108,223.383881 
	C46.450531,236.409027 40.881828,251.620316 37.139164,267.527618 
	C34.687294,277.948730 33.072727,288.566833 31.083149,299.096710 
z"/>
<path fill="#D98868" opacity="1.000000" stroke="none" 
	d="
M513.000000,254.532059 
	C511.643005,258.189819 510.675079,261.624084 508.854218,264.522461 
	C503.884460,272.433258 498.296295,273.907745 489.411499,269.605164 
	C489.004364,257.427399 488.996399,245.705002 489.180298,233.713776 
	C493.270874,229.933060 497.169678,226.421143 501.068481,222.909241 
	C507.378021,225.405731 511.129578,229.998154 512.671692,236.834930 
	C513.000000,242.688034 513.000000,248.376083 513.000000,254.532059 
z"/>
<path fill="#8C4A37" opacity="1.000000" stroke="none" 
	d="
M142.045868,144.157135 
	C144.590057,140.005722 144.479385,135.667206 144.155441,130.857422 
	C142.197372,101.784172 155.038803,79.974861 178.660233,64.153717 
	C195.764511,52.697636 215.212830,47.021023 235.192200,43.021988 
	C239.161469,42.227512 243.179626,41.677418 247.678238,41.449852 
	C248.862549,42.253036 249.504929,42.812878 250.231018,42.960247 
	C261.551575,45.257843 272.165771,48.969185 281.327881,56.446552 
	C284.365509,58.925587 288.303345,60.730011 292.121552,61.749775 
	C308.453094,66.111588 320.463013,75.606865 328.293091,90.564407 
	C333.970306,101.409515 335.602234,113.098839 336.030823,125.104050 
	C336.147797,128.381424 335.719971,132.130035 337.138031,134.821625 
	C340.894073,141.950974 341.725739,149.479019 340.838867,157.058838 
	C339.951294,164.644470 337.352051,171.826370 329.744690,175.775681 
	C325.654755,169.699158 321.833160,163.845505 317.857056,157.697952 
	C308.713989,149.697281 302.261322,140.214737 298.538055,128.516632 
	C297.319275,129.393082 296.666260,129.656128 296.323517,130.139267 
	C286.902100,143.420517 273.309509,148.786011 257.779236,150.020920 
	C245.861130,150.968597 233.804504,150.604233 221.972672,152.107727 
	C203.486771,154.456726 187.366409,161.355499 177.794876,178.969406 
	C174.976807,184.155319 170.889252,188.491623 163.747635,187.981049 
	C158.051880,183.176025 152.653656,178.554352 147.150513,173.582626 
	C142.300720,165.762344 141.227661,157.543747 142.025009,148.920670 
	C142.170654,147.345657 142.045837,145.745621 142.045868,144.157135 
z"/>
<path fill="#FFD659" opacity="1.000000" stroke="none" 
	d="
M372.155975,142.977722 
	C384.414246,136.377487 397.603516,132.587021 411.687683,130.448868 
	C417.813416,133.422897 423.471497,135.954193 429.094452,138.561218 
	C435.083405,141.337936 441.157928,143.961945 446.986206,147.047195 
	C461.970612,154.979370 468.626068,168.102203 470.065399,184.517548 
	C470.534332,189.865845 471.547302,195.197464 472.722168,200.444748 
	C474.085114,206.532166 475.301819,212.464737 470.942230,217.678070 
	C469.526428,215.930862 468.260040,214.477646 466.851868,212.721771 
	C461.587280,205.881073 456.464539,199.343033 451.302673,192.755127 
	C445.224426,201.491867 435.878693,206.225128 425.341339,206.724319 
	C411.080841,207.399857 396.833130,207.146454 383.117310,211.537125 
	C382.729523,204.637512 383.143341,197.976852 381.786957,191.698654 
	C379.861053,182.784180 375.147217,175.574692 365.120087,173.637665 
	C367.524078,167.334000 370.341095,161.493332 371.945404,155.336624 
	C372.955139,151.461823 372.148010,147.113571 372.155975,142.977722 
z"/>
<path fill="#804231" opacity="1.000000" stroke="none" 
	d="
M371.988129,142.641510 
	C372.148010,147.113571 372.955139,151.461823 371.945404,155.336624 
	C370.341095,161.493332 367.524078,167.334000 364.812805,173.781464 
	C359.597565,178.799698 354.789612,183.344818 349.577454,187.967758 
	C339.070709,191.163345 332.193481,186.839264 330.013000,175.998550 
	C337.352051,171.826370 339.951294,164.644470 340.838867,157.058838 
	C341.725739,149.479019 340.894073,141.950974 337.138031,134.821625 
	C335.719971,132.130035 336.147797,128.381424 336.030823,125.104050 
	C335.602234,113.098839 333.970306,101.409515 328.293091,90.564407 
	C320.463013,75.606865 308.453094,66.111588 292.121552,61.749775 
	C288.303345,60.730011 284.365509,58.925587 281.327881,56.446552 
	C272.165771,48.969185 261.551575,45.257843 250.231018,42.960247 
	C249.504929,42.812878 248.862549,42.253036 248.095505,41.525421 
	C261.656586,41.028454 275.496704,39.490891 288.677643,44.131260 
	C296.072723,46.734715 303.484711,49.942890 309.979431,54.250198 
	C315.459686,57.884674 320.939331,60.769192 327.184479,62.687382 
	C348.130341,69.120888 359.890198,84.022072 364.941406,104.755142 
	C365.975555,108.999870 366.993561,113.430679 366.859253,117.739571 
	C366.589264,126.401924 367.303223,134.689407 371.988129,142.641510 
z"/>
<path fill="#FFBD54" opacity="1.000000" stroke="none" 
	d="
M471.091644,217.972076 
	C475.301819,212.464737 474.085114,206.532166 472.722168,200.444748 
	C471.547302,195.197464 470.534332,189.865845 470.065399,184.517548 
	C468.626068,168.102203 461.970612,154.979370 446.986206,147.047195 
	C441.157928,143.961945 435.083405,141.337936 429.094452,138.561218 
	C423.471497,135.954193 417.813416,133.422897 412.093872,130.509964 
	C425.074493,128.052109 437.998260,128.354584 450.475494,133.103165 
	C454.412964,134.601654 457.919708,137.202682 461.701782,139.147049 
	C465.129913,140.909439 468.541016,142.834427 472.173309,144.048187 
	C488.816956,149.609802 498.763519,162.911209 501.028259,180.635666 
	C501.876556,187.274582 502.913391,193.903107 504.215363,200.466736 
	C505.738342,208.144424 505.784393,215.479401 501.060364,222.547699 
	C497.169678,226.421143 493.270874,229.933060 488.796082,233.762192 
	C482.201813,235.805786 477.866974,233.557877 475.276978,227.440048 
	C473.931946,224.262848 472.489868,221.126755 471.091644,217.972076 
z"/>
<path fill="#FFBD54" opacity="1.000000" stroke="none" 
	d="
M141.715637,144.001495 
	C142.045837,145.745621 142.170654,147.345657 142.025009,148.920670 
	C141.227661,157.543747 142.300720,165.762344 146.800369,173.716629 
	C144.860107,175.125534 143.123611,175.982483 141.477463,176.987411 
	C135.462662,180.659363 133.776688,187.172150 131.060699,193.004852 
	C125.203552,183.867477 118.539986,175.399948 109.546371,169.154999 
	C103.023758,164.625870 95.960968,160.854904 89.585526,156.141891 
	C86.365852,153.761765 84.158394,150.022552 81.455009,146.931305 
	C78.096527,143.090973 74.698486,139.285233 71.130386,135.181671 
	C84.405434,131.762695 97.548439,131.878098 110.099991,138.586700 
	C111.074844,139.107727 112.489082,139.471191 113.487579,139.180756 
	C123.566620,136.248993 132.614227,139.150635 141.715637,144.001495 
z"/>
<path fill="#EBAD88" opacity="1.000000" stroke="none" 
	d="
M31.380880,299.250519 
	C33.072727,288.566833 34.687294,277.948730 37.139164,267.527618 
	C40.881828,251.620316 46.450531,236.409027 56.796108,223.383881 
	C64.677185,213.461548 75.109100,206.708344 85.696426,200.165955 
	C89.361610,197.901077 93.329086,196.095795 96.858154,193.647659 
	C101.379807,190.510986 105.665535,190.673874 110.353134,193.132095 
	C118.984497,197.658478 125.286530,204.488968 130.662857,213.207855 
	C135.049881,226.728867 133.951065,240.074554 134.007477,253.330170 
	C134.031586,258.993469 133.966934,264.657349 134.015671,270.320312 
	C134.214096,293.378967 123.577042,310.847443 105.232986,323.620850 
	C98.613121,328.230408 90.463463,330.643005 82.573700,334.049377 
	C78.729408,333.699493 75.323318,333.358398 71.917236,333.017273 
	C53.477009,327.831299 40.371662,316.258820 31.380880,299.250519 
z"/>
<path fill="#685C79" opacity="1.000000" stroke="none" 
	d="
M347.015686,472.844513 
	C317.204498,472.900330 287.393372,472.984680 257.582153,473.004852 
	C219.772629,473.030396 181.963074,473.005096 144.153534,472.998596 
	C137.461929,472.997437 135.764603,471.541840 136.059570,464.922638 
	C136.476334,455.570374 137.301544,446.236298 138.136505,436.153137 
	C140.279358,428.733276 142.237839,422.054810 144.445343,415.113007 
	C149.324860,407.417572 153.871140,399.931000 158.626633,392.579742 
	C160.572754,389.571350 162.971161,386.855560 165.467712,383.867371 
	C174.970276,375.694885 185.348312,369.722321 196.971680,366.360504 
	C197.004227,378.474487 196.835617,390.117035 197.118820,401.748535 
	C197.218002,405.822388 196.957489,410.123169 201.431091,413.078979 
	C213.085373,420.779205 212.971741,420.951202 212.981796,434.917694 
	C212.982162,435.416473 213.041763,435.923706 212.972488,436.412659 
	C212.494110,439.789612 214.049866,441.985321 216.731689,443.907196 
	C227.626572,451.714691 238.373459,459.729156 249.295197,467.498230 
	C251.331024,468.946411 253.920227,469.616699 256.502075,470.656189 
	C257.081757,470.672058 257.413239,470.666199 257.920227,470.897461 
	C259.641144,470.369781 261.323792,469.784393 262.709991,468.787018 
	C273.994965,460.667084 285.136597,452.344482 296.526917,444.376648 
	C299.744141,442.126068 301.737091,439.723999 300.991058,435.803528 
	C298.912842,424.881836 303.235779,417.467346 312.921631,412.460907 
	C314.481354,411.654724 315.790405,408.896515 315.881805,406.977173 
	C316.229340,399.677185 316.029968,392.351196 316.377655,385.062256 
	C317.420837,385.504700 318.239563,385.799103 318.804596,386.352570 
	C331.850281,399.130035 340.549194,414.598511 343.724579,432.388336 
	C346.091217,445.647095 346.007904,459.343201 347.015686,472.844513 
z"/>
<path fill="#FF2C5C" opacity="1.000000" stroke="none" 
	d="
M144.196320,415.376312 
	C142.237839,422.054810 140.279358,428.733276 138.121155,435.743164 
	C95.819130,436.049713 53.716831,436.025024 11.614529,435.999817 
	C5.027965,435.995880 5.244056,435.985474 4.957470,429.338959 
	C4.246885,412.859039 7.623629,397.532166 16.750837,383.578186 
	C24.401958,371.880920 34.807533,364.011353 48.566818,360.425598 
	C48.968578,368.650940 49.394836,376.484802 48.841713,384.248871 
	C48.417908,390.197723 50.875526,394.302399 54.709175,398.233795 
	C60.027214,403.687439 65.107986,409.372101 70.410957,414.840912 
	C76.957375,421.592072 83.627625,428.223145 90.370605,434.882416 
	C90.496849,434.858734 90.748611,434.911407 91.079514,434.821289 
	C92.754456,433.502289 94.180939,432.351440 95.429588,431.032257 
	C106.483269,419.354553 117.400452,407.545044 128.604324,396.013855 
	C131.743256,392.783203 133.594254,389.493958 133.282547,385.142761 
	C140.131989,394.262024 143.520050,404.341187 144.196320,415.376312 
z"/>
<path fill="#47D5E6" opacity="1.000000" stroke="none" 
	d="
M478.030884,435.854279 
	C444.367950,435.905304 410.704987,435.956329 376.447205,435.653748 
	C372.263550,419.537598 366.072662,405.002960 355.673370,392.444183 
	C353.368591,389.660797 351.126862,386.825165 349.010559,383.703979 
	C357.491760,372.497406 367.444519,363.798950 380.973145,360.367828 
	C381.011383,369.142914 380.655273,377.466644 381.203094,385.730469 
	C381.421600,389.026184 382.891510,392.857391 385.075317,395.294830 
	C393.476257,404.671478 402.378235,413.600525 411.131897,422.659241 
	C415.128967,426.795624 419.215637,430.845428 423.386414,434.906799 
	C423.511139,434.879089 423.760559,434.934814 424.087952,434.829407 
	C436.761169,421.773926 449.107452,408.824280 461.452545,395.873505 
	C464.352936,392.830811 465.741058,389.285126 465.387726,385.073059 
	C468.176514,389.302399 471.153931,393.289490 472.948669,397.752197 
	C477.858551,409.960815 478.201477,422.900818 478.030884,435.854279 
z"/>
<path fill="#594F69" opacity="1.000000" stroke="none" 
	d="
M348.856110,384.013580 
	C351.126862,386.825165 353.368591,389.660797 355.673370,392.444183 
	C366.072662,405.002960 372.263550,419.537598 375.986267,435.668213 
	C376.740845,446.672150 377.566437,457.302338 377.860626,467.947235 
	C377.952148,471.257568 375.367432,473.036255 371.845337,473.013428 
	C363.878021,472.961731 355.910156,472.985657 347.479126,472.911682 
	C346.007904,459.343201 346.091217,445.647095 343.724579,432.388336 
	C340.549194,414.598511 331.850281,399.130035 318.804596,386.352570 
	C318.239563,385.799103 317.420837,385.504700 316.365051,384.590210 
	C316.375793,378.050415 316.741791,372.010071 317.443665,366.124023 
	C329.552368,369.712494 339.405640,376.510132 348.856110,384.013580 
z"/>
<path fill="#E8926F" opacity="1.000000" stroke="none" 
	d="
M470.942230,217.678070 
	C472.489868,221.126755 473.931946,224.262848 475.276978,227.440048 
	C477.866974,233.557877 482.201813,235.805786 488.604279,234.031006 
	C488.996399,245.705002 489.004364,257.427399 489.023468,269.626007 
	C490.599182,295.898834 470.878479,325.008667 442.045868,333.016266 
	C432.829498,333.716125 424.390259,334.336243 416.035645,334.600159 
	C416.772522,333.829041 417.372650,333.210419 418.084442,333.028503 
	C446.368011,325.800049 468.006927,298.361664 467.099274,267.846405 
	C466.556183,249.587524 466.995789,231.299423 466.993652,213.024445 
	C468.260040,214.477646 469.526428,215.930862 470.942230,217.678070 
z"/>
<path fill="#23C0D4" opacity="1.000000" stroke="none" 
	d="
M478.494202,435.914368 
	C478.201477,422.900818 477.858551,409.960815 472.948669,397.752197 
	C471.153931,393.289490 468.176514,389.302399 465.373413,384.599274 
	C465.017639,376.031891 465.027069,367.963531 465.036530,359.895203 
	C490.843994,367.798462 503.549103,386.592194 507.893585,412.029785 
	C508.912384,417.994965 508.627197,424.180359 508.983643,430.262024 
	C509.218781,434.272888 507.954742,436.291748 503.365570,436.095306 
	C495.242706,435.747589 487.094879,435.983032 478.494202,435.914368 
z"/>
<path fill="#D6254E" opacity="1.000000" stroke="none" 
	d="
M90.244362,434.906097 
	C83.627625,428.223145 76.957375,421.592072 70.410957,414.840912 
	C65.107986,409.372101 60.027214,403.687439 54.709175,398.233795 
	C50.875526,394.302399 48.417908,390.197723 48.841713,384.248871 
	C49.394836,376.484802 48.968578,368.650940 48.945206,360.373138 
	C48.945530,359.734009 48.903217,359.474792 48.991928,359.417084 
	C55.744537,355.025574 62.797184,351.610687 71.600082,353.218323 
	C72.194595,355.480865 72.397186,357.227081 72.648712,359.395447 
	C72.959358,361.118622 73.184593,362.428223 73.488205,363.719421 
	C79.068001,387.449615 84.657166,411.177643 90.244362,434.906097 
z"/>
<path fill="#21B5C7" opacity="1.000000" stroke="none" 
	d="
M464.889587,359.573486 
	C465.027069,367.963531 465.017639,376.031891 465.022522,384.574036 
	C465.741058,389.285126 464.352936,392.830811 461.452545,395.873505 
	C449.107452,408.824280 436.761169,421.773926 424.152771,434.428802 
	C425.778931,426.075439 427.691650,418.022766 429.551453,409.957947 
	C433.527924,392.713989 437.477020,375.463745 441.648621,357.836639 
	C441.960052,356.304016 442.060211,355.150848 442.160339,353.997650 
	C443.463531,353.331390 445.057831,351.809326 446.022766,352.137512 
	C452.338654,354.285736 458.518433,356.834137 464.889587,359.573486 
z"/>
<path fill="#D9886A" opacity="1.000000" stroke="none" 
	d="
M72.599777,358.973267 
	C72.397186,357.227081 72.194595,355.480865 71.976440,353.343903 
	C71.967514,346.618561 71.974144,340.283997 71.949005,333.483337 
	C75.323318,333.358398 78.729408,333.699493 82.842804,334.322296 
	C92.204964,336.422302 100.650299,334.848145 109.049568,333.492737 
	C109.025116,340.622559 109.031487,347.286865 109.022469,354.382141 
	C108.931450,356.246826 108.855812,357.680511 108.330276,359.066376 
	C96.120186,359.003479 84.359978,358.988373 72.599777,358.973267 
z"/>
<path fill="#D98868" opacity="1.000000" stroke="none" 
	d="
M442.096771,353.533142 
	C442.060211,355.150848 441.960052,356.304016 441.233582,357.807190 
	C428.827881,358.208008 417.048492,358.258789 405.164215,357.887207 
	C404.985657,356.308258 404.912018,355.151672 404.901550,353.530731 
	C404.949158,346.383026 404.933563,339.699677 405.328522,333.016724 
	C409.143036,333.663513 412.546997,334.309937 415.950989,334.956360 
	C424.390259,334.336243 432.829498,333.716125 441.672607,333.060211 
	C442.062042,339.705811 442.047607,346.387238 442.096771,353.533142 
z"/>
<path fill="#E8926F" opacity="1.000000" stroke="none" 
	d="
M109.080391,333.027191 
	C100.650299,334.848145 92.204964,336.422302 83.281006,334.331055 
	C90.463463,330.643005 98.613121,328.230408 105.232986,323.620850 
	C123.577042,310.847443 134.214096,293.378967 134.015671,270.320312 
	C133.966934,264.657349 134.031586,258.993469 134.007477,253.330170 
	C133.951065,240.074554 135.049881,226.728867 130.957947,213.362167 
	C130.971054,206.597076 131.008728,200.249313 131.053558,193.453217 
	C133.776688,187.172150 135.462662,180.659363 141.477463,176.987411 
	C143.123611,175.982483 144.860107,175.125534 146.905304,174.066681 
	C152.653656,178.554352 158.051880,183.176025 163.736389,188.434875 
	C164.017502,205.356384 164.012299,221.640686 163.636993,237.987320 
	C157.490967,241.553543 151.377167,241.728180 144.895233,239.621460 
	C143.149368,238.236176 141.568115,237.126846 139.936279,235.880005 
	C139.804169,235.692230 139.722672,235.641998 139.641174,235.591766 
	C139.766846,235.723160 139.892517,235.854538 139.998566,236.412338 
	C141.008408,243.541565 142.037888,250.244370 143.050949,257.372620 
	C145.333923,271.877991 147.633316,285.957916 149.623260,300.178131 
	C140.023071,316.289642 127.305626,328.045868 109.080391,333.027191 
z"/>
<path fill="#EBAD88" opacity="1.000000" stroke="none" 
	d="
M164.007111,237.925003 
	C164.012299,221.640686 164.017502,205.356384 164.033936,188.618256 
	C170.889252,188.491623 174.976807,184.155319 177.794876,178.969406 
	C187.366409,161.355499 203.486771,154.456726 221.972672,152.107727 
	C233.804504,150.604233 245.861130,150.968597 257.779236,150.020920 
	C273.309509,148.786011 286.902100,143.420517 296.323517,130.139267 
	C296.666260,129.656128 297.319275,129.393082 298.538055,128.516632 
	C302.261322,140.214737 308.713989,149.697281 317.852112,158.132797 
	C318.330597,170.897964 318.659546,182.934387 318.661499,194.814972 
	C316.551331,193.830948 314.779755,192.321548 312.983093,192.291031 
	C304.630737,192.149017 296.236633,192.002060 287.928162,192.699417 
	C283.257141,193.091461 278.592682,194.784470 274.166748,196.510590 
	C270.167053,198.070511 268.997253,202.077820 270.510284,206.027176 
	C272.465942,211.131912 277.036499,210.934448 280.564972,209.715286 
	C290.928223,206.134628 301.510986,207.266525 312.058380,206.933578 
	C314.386200,206.860092 316.679474,205.692642 318.990143,205.495773 
	C318.614288,221.577118 320.003143,237.481125 317.500732,252.747299 
	C311.877991,287.049286 292.226318,311.273682 259.787323,324.595978 
	C254.934967,326.588837 249.914841,328.173248 244.554047,329.954895 
	C239.721619,329.315582 235.307480,328.667938 230.527100,327.986145 
	C228.651337,327.308289 227.174347,326.570435 225.627167,326.035645 
	C212.166000,321.382721 200.068039,314.277008 190.547104,303.761322 
	C183.996613,296.526398 178.856735,288.014343 173.057419,279.673950 
	C172.742828,277.998108 172.684586,276.613190 172.136520,275.461334 
	C166.482391,263.578186 164.994339,250.808929 164.007111,237.925003 
M278.830902,285.554840 
	C281.515533,284.230225 284.295074,283.066589 286.867126,281.550964 
	C294.752075,276.904633 301.212372,270.776215 305.194336,262.428467 
	C306.936584,258.776062 306.570587,255.028152 302.648102,252.943756 
	C298.926514,250.966125 294.988617,251.152176 292.578247,255.139648 
	C285.918457,266.156982 276.452637,272.145081 263.512268,273.440704 
	C251.060501,274.687378 239.735901,272.590302 230.064301,264.460297 
	C226.575378,261.527466 223.855637,257.681915 220.770096,254.266251 
	C217.779343,250.955551 214.121613,251.143921 210.835419,253.227264 
	C207.385193,255.414551 206.825760,259.286041 208.916016,262.464355 
	C211.985199,267.131195 215.216934,272.063751 219.491165,275.500336 
	C237.000671,289.578400 256.841797,292.150024 278.830902,285.554840 
M243.594070,205.786118 
	C244.743591,201.358505 243.758575,197.848022 239.181793,196.077515 
	C226.560883,191.195236 213.493073,190.415359 200.276917,192.507263 
	C195.116135,193.324127 193.354584,196.367508 194.004471,201.485626 
	C194.594162,206.129822 197.736023,207.070831 201.868698,207.069046 
	C212.427246,207.064499 223.016541,206.114838 233.384369,209.704224 
	C236.679703,210.845108 241.175827,211.299484 243.594070,205.786118 
z"/>
<path fill="#E8916F" opacity="1.000000" stroke="none" 
	d="
M318.988525,194.970825 
	C318.659546,182.934387 318.330597,170.897964 318.006592,158.426682 
	C321.833160,163.845505 325.654755,169.699158 329.744690,175.775681 
	C332.193481,186.839264 339.070709,191.163345 349.583618,188.446472 
	C349.996002,202.746780 349.998230,216.646210 349.999939,230.545639 
	C350.000916,238.376266 350.000519,238.376266 358.005768,241.475998 
	C357.999390,246.416336 358.128540,250.893417 357.961151,255.359406 
	C357.777039,260.272705 357.320160,265.175751 356.617371,270.193726 
	C352.368988,270.992462 348.485291,271.680786 343.899658,272.493500 
	C332.840668,299.952881 312.250732,318.650421 282.655823,328.021790 
	C277.443848,328.968201 272.661224,330.554230 267.831818,330.712646 
	C260.228546,330.962097 252.593765,330.251007 244.972336,329.946594 
	C249.914841,328.173248 254.934967,326.588837 259.787323,324.595978 
	C292.226318,311.273682 311.877991,287.049286 317.500732,252.747299 
	C320.003143,237.481125 318.614288,221.577118 319.149139,205.128143 
	C319.200623,201.186050 319.094574,198.078430 318.988525,194.970825 
z"/>
<path fill="#EBAD88" opacity="1.000000" stroke="none" 
	d="
M356.982056,270.083282 
	C357.320160,265.175751 357.777039,260.272705 357.961151,255.359406 
	C358.128540,250.893417 357.999390,246.416336 358.450714,241.472321 
	C366.189758,241.944916 372.493530,239.521271 375.694580,233.107071 
	C379.006866,226.470016 380.717407,219.033615 383.128571,211.946854 
	C396.833130,207.146454 411.080841,207.399857 425.341339,206.724319 
	C435.878693,206.225128 445.224426,201.491867 451.302673,192.755127 
	C456.464539,199.343033 461.587280,205.881073 466.851868,212.721771 
	C466.995789,231.299423 466.556183,249.587524 467.099274,267.846405 
	C468.006927,298.361664 446.368011,325.800049 418.084442,333.028503 
	C417.372650,333.210419 416.772522,333.829041 416.035645,334.600159 
	C412.546997,334.309937 409.143036,333.663513 404.956238,332.983582 
	C374.333130,322.586121 359.234772,301.156036 356.982056,270.083282 
z"/>
<path fill="#D98868" opacity="1.000000" stroke="none" 
	d="
M383.117310,211.537125 
	C380.717407,219.033615 379.006866,226.470016 375.694580,233.107071 
	C372.493530,239.521271 366.189758,241.944916 358.455566,241.004181 
	C350.000519,238.376266 350.000916,238.376266 349.999939,230.545639 
	C349.998230,216.646210 349.996002,202.746780 349.987854,188.368637 
	C354.789612,183.344818 359.597565,178.799698 364.712830,174.110764 
	C375.147217,175.574692 379.861053,182.784180 381.786957,191.698654 
	C383.143341,197.976852 382.729523,204.637512 383.117310,211.537125 
z"/>
<path fill="#FFFFFF" opacity="1.000000" stroke="none" 
	d="
M173.086380,280.073090 
	C178.856735,288.014343 183.996613,296.526398 190.547104,303.761322 
	C200.068039,314.277008 212.166000,321.382721 225.627167,326.035645 
	C227.174347,326.570435 228.651337,327.308289 230.569427,328.451599 
	C230.953125,338.963287 230.928253,348.975342 230.571625,358.832855 
	C229.451401,354.693146 227.722580,353.109619 223.334412,354.796173 
	C216.704834,357.344116 209.761703,359.069397 203.096924,361.536316 
	C200.822464,362.378143 198.985245,364.401306 196.948242,365.884705 
	C185.348312,369.722321 174.970276,375.694885 165.315918,383.552734 
	C164.161514,382.666260 163.356659,382.031708 162.780197,381.232422 
	C155.247238,370.787659 145.320496,363.695801 132.890076,359.558044 
	C127.480461,357.139191 122.122879,355.244476 116.985390,352.872955 
	C113.883919,351.441284 111.460815,351.923462 109.037849,353.951141 
	C109.031487,347.286865 109.025116,340.622559 109.049568,333.492737 
	C127.305626,328.045868 140.023071,316.289642 149.652130,300.595062 
	C151.307007,307.274872 152.549667,313.695038 154.012878,320.064575 
	C154.256760,321.126160 155.379974,322.619781 156.242752,322.725769 
	C157.094574,322.830383 158.488022,321.626068 159.025925,320.654022 
	C161.486893,316.206970 164.381714,311.848267 165.911865,307.070648 
	C168.748413,298.214020 170.741837,289.087311 173.086380,280.073090 
z"/>
<path fill="#51485E" opacity="1.000000" stroke="none" 
	d="
M196.971680,366.360535 
	C198.985245,364.401306 200.822464,362.378143 203.096924,361.536316 
	C209.761703,359.069397 216.704834,357.344116 223.334412,354.796173 
	C227.722580,353.109619 229.451401,354.693146 230.609192,359.193939 
	C231.094437,361.103943 231.210358,362.498322 231.348404,364.332550 
	C234.101257,376.431366 236.823380,388.092377 239.564545,399.748901 
	C245.122253,423.382538 250.690277,447.013763 256.254059,470.645966 
	C253.920227,469.616699 251.331024,468.946411 249.295197,467.498230 
	C238.373459,459.729156 227.626572,451.714691 216.731689,443.907196 
	C214.049866,441.985321 212.494110,439.789612 212.972488,436.412659 
	C213.041763,435.923706 212.982162,435.416473 212.981796,434.917694 
	C212.971741,420.951202 213.085373,420.779205 201.431091,413.078979 
	C196.957489,410.123169 197.218002,405.822388 197.118820,401.748535 
	C196.835617,390.117035 197.004227,378.474487 196.971680,366.360535 
z"/>
<path fill="#51485E" opacity="1.000000" stroke="none" 
	d="
M317.107758,365.969696 
	C316.741791,372.010071 316.375793,378.050415 316.022430,384.562866 
	C316.029968,392.351196 316.229340,399.677185 315.881805,406.977173 
	C315.790405,408.896515 314.481354,411.654724 312.921631,412.460907 
	C303.235779,417.467346 298.912842,424.881836 300.991058,435.803528 
	C301.737091,439.723999 299.744141,442.126068 296.526917,444.376648 
	C285.136597,452.344482 273.994965,460.667084 262.709991,468.787018 
	C261.323792,469.784393 259.641144,470.369781 257.967651,470.513489 
	C259.078400,464.556213 260.309723,459.229675 261.557617,453.907074 
	C268.592621,423.900452 275.631622,393.894714 282.793823,363.569794 
	C282.977844,361.829712 283.037231,360.408569 283.428375,358.832886 
	C284.541382,354.782379 286.220581,353.103943 290.578369,354.751068 
	C297.156708,357.237610 304.033875,358.931061 310.624115,361.390137 
	C313.021179,362.284546 314.959900,364.407349 317.107758,365.969696 
z"/>
<path fill="#FDD559" opacity="1.000000" stroke="none" 
	d="
M282.669250,363.888733 
	C275.631622,393.894714 268.592621,423.900452 261.557617,453.907074 
	C260.309723,459.229675 259.078400,464.556213 257.791962,470.264893 
	C257.413239,470.666199 257.081757,470.672058 256.502075,470.656189 
	C250.690277,447.013763 245.122253,423.382538 239.564545,399.748901 
	C236.823380,388.092377 234.101257,376.431366 231.870422,364.382996 
	C249.136612,363.958618 265.902924,363.923676 282.669250,363.888733 
z"/>
<path fill="#E62753" opacity="1.000000" stroke="none" 
	d="
M133.034821,359.881348 
	C145.320496,363.695801 155.247238,370.787659 162.780197,381.232422 
	C163.356659,382.031708 164.161514,382.666260 165.012009,383.692017 
	C162.971161,386.855560 160.572754,389.571350 158.626633,392.579742 
	C153.871140,399.931000 149.324860,407.417572 144.445343,415.113007 
	C143.520050,404.341187 140.131989,394.262024 133.024231,384.890686 
	C132.649353,376.285339 132.842087,368.083344 133.034821,359.881348 
z"/>
<path fill="#D6254E" opacity="1.000000" stroke="none" 
	d="
M132.890076,359.558044 
	C132.842087,368.083344 132.649353,376.285339 132.714951,384.739410 
	C133.594254,389.493958 131.743256,392.783203 128.604324,396.013855 
	C117.400452,407.545044 106.483269,419.354553 95.429588,431.032257 
	C94.180939,432.351440 92.754456,433.502289 91.147308,434.431702 
	C96.849518,409.126190 102.814850,384.120209 108.780182,359.114197 
	C108.855812,357.680511 108.931450,356.246826 109.022469,354.382141 
	C111.460815,351.923462 113.883919,351.441284 116.985390,352.872955 
	C122.122879,355.244476 127.480461,357.139191 132.890076,359.558044 
z"/>
<path fill="#DCDCE6" opacity="1.000000" stroke="none" 
	d="
M108.330284,359.066376 
	C102.814850,384.120209 96.849518,409.126190 90.816399,434.521790 
	C90.748611,434.911407 90.496849,434.858734 90.370605,434.882416 
	C84.657166,411.177643 79.068001,387.449615 73.488205,363.719421 
	C73.184593,362.428223 72.959358,361.118622 72.648712,359.395416 
	C84.359978,358.988373 96.120186,359.003479 108.330284,359.066376 
z"/>
<path fill="#FFFFFF" opacity="1.000000" stroke="none" 
	d="
M317.443665,366.124023 
	C314.959900,364.407349 313.021179,362.284546 310.624115,361.390137 
	C304.033875,358.931061 297.156708,357.237610 290.578369,354.751068 
	C286.220581,353.103943 284.541382,354.782379 283.388855,358.365662 
	C283.033142,348.042419 283.048676,338.031799 283.064209,328.021210 
	C312.250732,318.650421 332.840668,299.952881 343.899658,272.493500 
	C348.485291,271.680786 352.368988,270.992462 356.617371,270.193726 
	C359.234772,301.156036 374.333130,322.586121 404.545715,332.983185 
	C404.933563,339.699677 404.949158,346.383026 404.575256,353.369171 
	C402.907288,353.114807 401.344788,351.779449 400.396027,352.125671 
	C393.839569,354.518463 387.411041,357.261780 380.941406,359.892456 
	C367.444519,363.798950 357.491760,372.497406 349.010559,383.703979 
	C339.405640,376.510132 329.552368,369.712494 317.443665,366.124023 
z"/>
<path fill="#21B6C7" opacity="1.000000" stroke="none" 
	d="
M380.973145,360.367828 
	C387.411041,357.261780 393.839569,354.518463 400.396027,352.125671 
	C401.344788,351.779449 402.907288,353.114807 404.512085,353.833527 
	C404.912018,355.151672 404.985657,356.308258 405.114624,358.248596 
	C411.200500,384.333038 417.231079,409.633759 423.261688,434.934479 
	C419.215637,430.845428 415.128967,426.795624 411.131897,422.659241 
	C402.378235,413.600525 393.476257,404.671478 385.075317,395.294830 
	C382.891510,392.857391 381.421600,389.026184 381.203094,385.730469 
	C380.655273,377.466644 381.011383,369.142914 380.973145,360.367828 
z"/>
<path fill="#D8DDE6" opacity="1.000000" stroke="none" 
	d="
M423.386414,434.906799 
	C417.231079,409.633759 411.200500,384.333038 405.219543,358.670959 
	C417.048492,358.258789 428.827881,358.208008 441.022278,358.186646 
	C437.477020,375.463745 433.527924,392.713989 429.551453,409.957947 
	C427.691650,418.022766 425.778931,426.075439 423.825378,434.534210 
	C423.760559,434.934814 423.511139,434.879089 423.386414,434.906799 
z"/>
<path fill="#FFBD54" opacity="1.000000" stroke="none" 
	d="
M173.057419,279.673950 
	C170.741837,289.087311 168.748413,298.214020 165.911865,307.070648 
	C164.381714,311.848267 161.486893,316.206970 159.025925,320.654022 
	C158.488022,321.626068 157.094574,322.830383 156.242752,322.725769 
	C155.379974,322.619781 154.256760,321.126160 154.012878,320.064575 
	C152.549667,313.695038 151.307007,307.274872 149.961578,300.454742 
	C147.633316,285.957916 145.333923,271.877991 143.327576,257.102905 
	C144.100342,250.904297 144.580093,245.400864 145.059845,239.897446 
	C151.377167,241.728180 157.490967,241.553543 163.636993,237.987320 
	C164.994339,250.808929 166.482391,263.578186 172.136520,275.461334 
	C172.684586,276.613190 172.742828,277.998108 173.057419,279.673950 
z"/>
<path fill="#FED15A" opacity="1.000000" stroke="none" 
	d="
M144.895233,239.621460 
	C144.580093,245.400864 144.100342,250.904297 143.343964,256.677429 
	C142.037888,250.244370 141.008408,243.541565 139.989746,236.419342 
	C140.000549,235.999908 139.986862,236.017532 139.986862,236.017532 
	C141.568115,237.126846 143.149368,238.236176 144.895233,239.621460 
z"/>
<path fill="#FED15A" opacity="1.000000" stroke="none" 
	d="
M140.009369,235.992920 
	C139.892517,235.854538 139.766846,235.723160 139.641174,235.591766 
	C139.722672,235.641998 139.804169,235.692230 139.936279,235.880005 
	C139.986862,236.017532 140.000549,235.999908 140.009369,235.992920 
z"/>
<path fill="#D98868" opacity="1.000000" stroke="none" 
	d="
M282.655823,328.021790 
	C283.048676,338.031799 283.033142,348.042419 283.057129,358.520203 
	C283.037231,360.408569 282.977844,361.829712 282.793823,363.569824 
	C265.902924,363.923676 249.136612,363.958618 231.848297,363.943146 
	C231.210358,362.498322 231.094437,361.103943 230.940948,359.348480 
	C230.928253,348.975342 230.953125,338.963287 230.935669,328.485779 
	C235.307480,328.667938 239.721619,329.315582 244.554047,329.954895 
	C252.593765,330.251007 260.228546,330.962097 267.831818,330.712646 
	C272.661224,330.554230 277.443848,328.968201 282.655823,328.021790 
z"/>
<path fill="#D98969" opacity="1.000000" stroke="none" 
	d="
M278.467407,285.703491 
	C256.841797,292.150024 237.000671,289.578400 219.491165,275.500336 
	C215.216934,272.063751 211.985199,267.131195 208.916016,262.464355 
	C206.825760,259.286041 207.385193,255.414551 210.835419,253.227264 
	C214.121613,251.143921 217.779343,250.955551 220.770096,254.266251 
	C223.855637,257.681915 226.575378,261.527466 230.064301,264.460297 
	C239.735901,272.590302 251.060501,274.687378 263.512268,273.440704 
	C276.452637,272.145081 285.918457,266.156982 292.578247,255.139648 
	C294.988617,251.152176 298.926514,250.966125 302.648102,252.943756 
	C306.570587,255.028152 306.936584,258.776062 305.194336,262.428467 
	C301.212372,270.776215 294.752075,276.904633 286.867126,281.550964 
	C284.295074,283.066589 281.515533,284.230225 278.467407,285.703491 
z"/>
<path fill="#D98969" opacity="1.000000" stroke="none" 
	d="
M243.412811,206.148193 
	C241.175827,211.299484 236.679703,210.845108 233.384369,209.704224 
	C223.016541,206.114838 212.427246,207.064499 201.868698,207.069046 
	C197.736023,207.070831 194.594162,206.129822 194.004471,201.485626 
	C193.354584,196.367508 195.116135,193.324127 200.276917,192.507263 
	C213.493073,190.415359 226.560883,191.195236 239.181793,196.077515 
	C243.758575,197.848022 244.743591,201.358505 243.412811,206.148193 
z"/>
<path fill="#D98969" opacity="1.000000" stroke="none" 
	d="
M318.661499,194.814972 
	C319.094574,198.078430 319.200623,201.186050 319.147675,204.661285 
	C316.679474,205.692642 314.386200,206.860092 312.058380,206.933578 
	C301.510986,207.266525 290.928223,206.134628 280.564972,209.715286 
	C277.036499,210.934448 272.465942,211.131912 270.510284,206.027176 
	C268.997253,202.077820 270.167053,198.070511 274.166748,196.510590 
	C278.592682,194.784470 283.257141,193.091461 287.928162,192.699417 
	C296.236633,192.002060 304.630737,192.149017 312.983093,192.291031 
	C314.779755,192.321548 316.551331,193.830948 318.661499,194.814972 
z"/>
</svg>