<?xml version="1.0" encoding="UTF-8"?>
<svg xmlns="http://www.w3.org/2000/svg" xmlns:xlink="http://www.w3.org/1999/xlink" width="px" height="px" viewBox="0 0 384 384" version="1.1">
<g id="surface1">
<path style=" stroke:none;fill-rule:nonzero;fill:rgb(0%,0%,0%);fill-opacity:1;" d="M 113.851562 4.5 C 95.175781 7.648438 79.125 21.75 73.125 40.273438 L 71.851562 44.25 L 40.351562 44.25 C 10.351562 44.25 8.773438 44.324219 6 45.75 C 2.625 47.476562 0 51.824219 0 55.648438 C 0 59.101562 2.851562 63.675781 6 65.324219 C 8.398438 66.675781 10.875 66.75 40.199219 66.75 L 71.851562 66.75 L 73.125 70.648438 C 78.523438 87.300781 91.273438 99.976562 108 105.148438 C 115.273438 107.398438 129.074219 107.550781 136.125 105.449219 C 149.476562 101.398438 162.523438 90.824219 168.226562 79.5 C 176.625 62.625 175.726562 42.75 165.898438 27.675781 C 154.648438 10.5 133.726562 1.199219 113.851562 4.5 Z M 127.574219 27 C 136.800781 28.726562 144.75 34.949219 148.800781 43.5 C 150.898438 47.851562 151.125 49.125 151.125 55.5 C 151.125 61.875 150.898438 63.148438 148.800781 67.5 C 140.023438 86.101562 116.398438 90.226562 101.851562 75.675781 C 99.824219 73.648438 97.273438 70.050781 96.148438 67.648438 C 94.351562 63.898438 94.125 62.476562 94.125 55.5 C 94.125 48.523438 94.351562 47.101562 96.148438 43.351562 C 99.898438 35.324219 108.375 28.800781 117.148438 27.074219 C 121.726562 26.175781 123 26.175781 127.574219 27 Z M 127.574219 27 "/>
<path style=" stroke:none;fill-rule:nonzero;fill:rgb(0%,0%,0%);fill-opacity:1;" d="M 198.75 45.675781 C 194.625 47.851562 193.125 50.476562 193.125 55.5 C 193.125 60.601562 194.699219 63.375 198.824219 65.398438 C 201.226562 66.675781 207 66.75 288.375 66.75 C 371.699219 66.75 375.523438 66.675781 378 65.324219 C 381.148438 63.675781 384 59.101562 384 55.648438 C 384 51.824219 381.375 47.476562 378 45.75 C 375.074219 44.25 373.800781 44.25 288.226562 44.25 C 205.125 44.25 201.226562 44.324219 198.75 45.675781 Z M 198.75 45.675781 "/>
<path style=" stroke:none;fill-rule:nonzero;fill:rgb(0%,0%,0%);fill-opacity:1;" d="M 264.898438 141.074219 C 259.425781 141.976562 250.5 145.648438 245.550781 148.949219 C 239.851562 152.773438 231.675781 161.773438 228.449219 167.925781 C 220.726562 182.625 220.800781 201.375 228.523438 216.226562 C 232.574219 224.023438 242.925781 234.226562 250.5 237.898438 C 259.726562 242.324219 264 243.300781 274.125 243.300781 C 284.25 243.375 289.875 242.023438 298.273438 237.601562 C 309.824219 231.523438 319.425781 220.125 323.324219 207.75 L 324.601562 203.625 L 350.699219 203.25 C 380.101562 202.800781 379.574219 202.949219 382.574219 197.175781 C 384.375 193.574219 384.375 190.425781 382.574219 186.824219 C 379.574219 181.050781 380.101562 181.199219 350.699219 180.75 L 324.601562 180.375 L 323.324219 176.25 C 318.300781 160.425781 305.324219 147.675781 288.75 142.425781 C 283.050781 140.699219 270.976562 139.949219 264.898438 141.074219 Z M 284.625 165.074219 C 292.5 168 299.398438 175.425781 301.875 183.523438 C 306.226562 197.925781 298.5 213.601562 284.398438 219.074219 C 278.550781 221.324219 269.699219 221.324219 263.925781 219.074219 C 252.675781 214.726562 245.25 204 245.25 192 C 245.25 171.601562 265.351562 157.875 284.625 165.074219 Z M 284.625 165.074219 "/>
<path style=" stroke:none;fill-rule:nonzero;fill:rgb(0%,0%,0%);fill-opacity:1;" d="M 6 182.175781 C 2.851562 183.824219 0 188.476562 0 192 C 0 195.523438 2.851562 200.175781 6 201.824219 C 8.476562 203.175781 12.523438 203.25 101.851562 203.25 C 205.125 203.25 198.300781 203.550781 201.976562 198.449219 C 204.300781 195.226562 204.300781 188.773438 201.976562 185.550781 C 198.300781 180.449219 205.125 180.75 101.851562 180.75 C 12.523438 180.75 8.476562 180.824219 6 182.175781 Z M 6 182.175781 "/>
<path style=" stroke:none;fill-rule:nonzero;fill:rgb(0%,0%,0%);fill-opacity:1;" d="M 99.375 277.800781 C 81 282 66.148438 295.425781 60.675781 312.75 L 59.398438 316.875 L 33.300781 317.25 C 3.898438 317.699219 4.425781 317.550781 1.425781 323.324219 C -0.375 327 -0.375 330.074219 1.5 333.75 C 4.351562 339.300781 4.648438 339.300781 33.675781 339.75 L 59.398438 340.125 L 60.675781 344.25 C 64.875 357.675781 76.574219 370.5 89.699219 375.976562 C 95.25 378.300781 104.324219 380.25 109.875 380.25 C 112.199219 380.25 116.699219 379.726562 119.851562 379.050781 C 131.324219 376.726562 139.800781 371.851562 147.824219 363.148438 C 156.898438 353.324219 161.25 342.074219 161.25 328.5 C 161.25 313.875 156.75 303 146.25 292.425781 C 139.199219 285.300781 134.550781 282.300781 125.625 279.375 C 118.273438 276.898438 106.5 276.148438 99.375 277.800781 Z M 120.375 301.574219 C 131.324219 305.625 138.75 316.574219 138.75 328.5 C 138.75 344.699219 126.148438 357.226562 109.875 357.226562 C 93.675781 357.226562 81 344.625 81 328.574219 C 81.074219 308.023438 101.023438 294.300781 120.375 301.574219 Z M 120.375 301.574219 "/>
<path style=" stroke:none;fill-rule:nonzero;fill:rgb(0%,0%,0%);fill-opacity:1;" d="M 186.148438 318.523438 C 178.273438 322.425781 178.125 334.273438 186 338.25 C 188.925781 339.75 190.199219 339.75 282 339.75 C 373.800781 339.75 375.074219 339.75 378 338.25 C 381.375 336.523438 384 332.175781 384 328.351562 C 384 324.898438 381.148438 320.324219 378 318.675781 C 375.523438 317.324219 371.550781 317.25 282 317.25 C 197.550781 317.25 188.398438 317.398438 186.148438 318.523438 Z M 186.148438 318.523438 "/>
</g>
</svg>
