<?xml version="1.0" standalone="no"?>
<!DOCTYPE svg PUBLIC "-//W3C//DTD SVG 20010904//EN"
 "http://www.w3.org/TR/2001/REC-SVG-20010904/DTD/svg10.dtd">
<svg version="1.0" xmlns="http://www.w3.org/2000/svg"
 width="512.000000pt" height="512.000000pt" viewBox="0 0 512.000000 512.000000"
 preserveAspectRatio="xMidYMid meet">

<g transform="translate(0.000000,512.000000) scale(0.100000,-0.100000)"
fill="#000000" stroke="none">
<path d="M3780 4484 c-54 -23 -97 -61 -125 -108 -35 -59 -95 -268 -95 -328 0
-49 51 -200 85 -252 14 -21 15 -31 6 -58 -8 -23 -11 -197 -11 -583 1 -362 -2
-560 -9 -576 -9 -20 -30 -103 -55 -211 -6 -27 -9 -28 -70 -28 -69 0 -111 -20
-150 -73 -18 -25 -21 -45 -24 -169 -2 -77 -1 -160 3 -184 7 -51 49 -105 94
-124 l29 -12 -21 -46 c-21 -46 -22 -58 -22 -457 0 -402 0 -411 22 -457 30 -64
96 -134 158 -166 50 -27 51 -27 270 -27 l220 0 52 27 c68 36 120 90 152 158
l26 55 0 410 c0 400 -1 411 -22 457 l-21 47 21 7 c32 9 77 54 93 91 10 23 14
77 14 183 0 167 -7 196 -59 244 -25 24 -42 30 -91 34 -53 4 -60 7 -60 26 0 11
-14 71 -32 131 l-32 110 -5 570 c-3 314 -10 577 -14 586 -5 10 -1 29 13 51 33
57 80 195 80 237 0 52 -65 275 -95 327 -27 47 -82 92 -134 110 -49 18 -148 17
-191 -2z m160 -171 c23 -22 37 -52 61 -133 17 -58 31 -118 31 -135 0 -45 -51
-162 -79 -185 -37 -29 -119 -27 -155 3 -30 25 -78 135 -78 179 0 34 46 200 66
240 32 63 103 77 154 31z m30 -1082 c0 -246 -3 -469 -6 -495 l-7 -46 -78 0
-79 0 0 495 0 495 85 0 85 0 0 -449z m33 -783 c10 -40 17 -79 17 -85 0 -10
-35 -13 -141 -13 -109 0 -140 3 -137 13 3 6 13 45 23 85 l19 72 101 0 101 0
17 -72z m237 -383 l0 -125 -370 0 -370 0 0 125 0 125 370 0 370 0 0 -125z
m-160 -317 c18 -13 43 -36 54 -51 20 -27 21 -41 24 -400 3 -419 1 -434 -66
-485 l-35 -27 -191 0 c-182 0 -192 1 -223 23 -17 12 -41 42 -52 65 -20 41 -21
59 -21 403 0 353 0 361 23 404 12 25 37 55 56 67 32 22 44 23 216 23 172 0
184 -1 215 -22z"/>
<path d="M2150 4141 c-75 -24 -127 -70 -169 -148 -31 -57 -46 -65 -181 -94
-131 -28 -152 -27 -200 11 -113 89 -260 82 -363 -18 -74 -71 -98 -154 -73
-252 24 -92 21 -107 -38 -200 -86 -134 -92 -140 -167 -154 -160 -30 -250 -142
-236 -294 8 -98 62 -175 154 -221 51 -25 69 -51 78 -111 4 -25 15 -79 25 -120
21 -84 23 -78 -45 -187 -23 -38 -30 -62 -33 -116 -4 -60 -1 -75 27 -132 63
-128 198 -186 326 -140 63 23 81 19 178 -45 143 -93 138 -87 153 -169 22 -117
74 -181 179 -220 133 -50 269 0 330 120 34 67 59 86 119 94 28 4 84 16 123 26
65 17 77 18 107 5 18 -8 37 -19 41 -26 17 -28 110 -60 173 -60 181 0 315 179
258 346 -9 26 -16 58 -16 72 0 13 27 65 60 115 92 142 86 137 168 152 84 16
128 40 175 96 42 48 57 97 57 181 0 110 -51 188 -161 244 -54 27 -64 40 -74
104 -4 25 -15 80 -26 122 -21 84 -19 96 23 150 91 117 78 269 -32 372 -66 61
-142 84 -220 66 -118 -27 -123 -26 -205 26 -131 84 -154 103 -159 126 -23 120
-30 142 -60 181 -51 67 -113 99 -199 103 -39 2 -83 0 -97 -5z m145 -183 c19
-18 28 -38 36 -87 18 -118 49 -154 219 -263 140 -90 204 -106 295 -73 77 28
131 11 160 -51 22 -47 15 -81 -29 -139 -38 -49 -56 -99 -56 -155 0 -33 26
-164 57 -278 17 -64 74 -131 138 -161 55 -26 75 -54 75 -109 0 -77 -23 -98
-121 -112 -84 -12 -142 -49 -186 -118 -20 -31 -56 -87 -80 -123 -73 -109 -89
-182 -58 -269 21 -58 19 -92 -7 -125 -26 -34 -82 -58 -111 -49 -12 4 -48 25
-80 48 -58 41 -59 41 -145 40 -115 -1 -297 -41 -352 -78 -23 -15 -54 -48 -68
-73 -47 -79 -73 -104 -117 -109 -29 -4 -49 0 -72 15 -32 20 -35 27 -63 146
-13 58 -47 107 -99 142 -163 111 -220 143 -268 153 -54 12 -62 11 -149 -17
-44 -14 -57 -14 -83 -3 -34 14 -64 50 -74 89 -7 28 12 80 38 101 30 24 65 111
65 160 0 42 -24 165 -57 288 -17 64 -74 131 -138 161 -56 26 -75 54 -75 112 0
59 32 95 93 104 23 3 54 8 68 11 43 8 112 57 140 100 82 124 130 203 144 236
19 47 19 113 0 168 -24 67 -20 97 19 136 51 51 95 49 175 -7 64 -44 134 -62
196 -49 182 38 234 50 257 59 40 15 107 79 130 125 28 58 54 76 110 76 35 0
54 -6 73 -22z"/>
<path d="M1925 3620 c-337 -51 -606 -311 -671 -647 -54 -284 61 -590 289 -769
80 -63 202 -124 297 -151 91 -25 310 -24 400 1 464 129 715 616 546 1061 -60
156 -196 317 -342 403 -153 90 -345 128 -519 102z m242 -166 c499 -103 684
-716 324 -1074 -255 -254 -647 -254 -902 0 -132 132 -197 300 -186 485 18 297
229 536 528 594 70 14 154 12 236 -5z"/>
</g>
</svg>
