<?xml version="1.0" standalone="no"?>
<!DOCTYPE svg PUBLIC "-//W3C//DTD SVG 20010904//EN"
 "http://www.w3.org/TR/2001/REC-SVG-20010904/DTD/svg10.dtd">
<svg version="1.0" xmlns="http://www.w3.org/2000/svg"
 width="500.000000pt" height="500.000000pt" viewBox="0 0 500.000000 500.000000"
 preserveAspectRatio="xMidYMid meet">

<g transform="translate(0.000000,500.000000) scale(0.100000,-0.100000)"
fill="#000000" stroke="none">
<path d="M500 2836 c0 -899 0 -906 20 -906 20 0 20 7 20 885 l0 885 583 -2
582 -3 2 -895 2 -895 831 -3 c825 -2 830 -2 830 18 0 20 -6 20 -815 20 l-816
0 3 895 3 895 -591 0 c-325 0 -606 3 -623 6 l-31 7 0 -907z"/>
<path d="M812 3248 c3 -127 5 -143 21 -146 15 -3 17 8 17 122 l0 126 130 0
c123 0 130 1 130 20 0 19 -7 20 -150 20 l-151 0 3 -142z"/>
<path d="M1150 3370 c0 -19 7 -20 130 -20 l130 0 0 -126 c0 -114 2 -125 18
-122 15 3 17 19 20 146 l3 142 -151 0 c-143 0 -150 -1 -150 -20z"/>
<path d="M812 2878 l3 -153 138 -3 137 -3 0 26 0 25 -120 0 -120 0 0 130 c0
124 -1 130 -20 130 -20 0 -20 -5 -18 -152z"/>
<path d="M1410 2900 l0 -129 -127 -3 c-120 -3 -128 -4 -128 -23 0 -19 8 -20
148 -23 l147 -3 0 156 c0 148 -1 155 -20 155 -19 0 -20 -7 -20 -130z"/>
<path d="M2552 2583 c-11 -16 -25 -45 -33 -65 -10 -29 -18 -38 -36 -38 -13 0
-23 -4 -23 -10 0 -5 7 -10 16 -10 19 0 14 -28 -18 -101 -27 -63 -66 -99 -116
-106 -34 -5 -44 -1 -66 20 -36 36 -34 77 5 122 30 34 34 35 75 29 41 -6 44 -5
44 16 0 18 -5 21 -28 19 -34 -4 -52 7 -52 30 0 15 10 19 51 23 93 9 122 79 36
86 -28 2 -43 -3 -71 -28 l-36 -32 -30 33 c-16 19 -30 28 -30 20 0 -7 13 -25
29 -41 16 -17 31 -44 34 -66 6 -34 3 -41 -24 -64 -52 -43 -56 -145 -7 -171 31
-17 88 -14 126 5 25 13 30 13 26 2 -3 -8 -25 -19 -49 -25 -48 -12 -76 -41 -68
-72 8 -28 49 -36 73 -14 11 10 20 13 20 7 0 -7 11 -15 26 -18 29 -8 65 21 84
67 7 15 21 31 32 35 11 3 35 19 54 36 23 21 34 25 34 15 0 -8 7 -18 16 -21 19
-7 64 18 64 36 0 6 12 -1 26 -17 21 -22 31 -26 57 -21 17 3 41 16 53 27 22 21
22 21 29 1 7 -25 56 -38 83 -23 29 15 72 70 71 89 0 15 -2 15 -12 -2 -7 -10
-23 -32 -35 -47 -40 -49 -113 -31 -98 23 4 15 23 30 56 45 64 28 87 80 43 97
-32 13 -67 -19 -105 -94 -43 -86 -61 -102 -103 -98 -26 3 -30 8 -33 35 -2 18
6 53 17 78 31 71 100 88 83 21 -4 -16 -2 -18 7 -10 17 16 10 54 -11 68 -28 17
-69 -22 -113 -110 -39 -76 -68 -103 -80 -72 -3 8 7 51 23 96 16 46 26 85 21
87 -4 3 -17 -24 -29 -59 -23 -70 -67 -138 -101 -156 -11 -7 -22 -10 -25 -8 -2
2 13 50 33 106 32 90 39 102 59 102 13 0 24 5 24 10 0 6 -9 10 -19 10 -19 0
-19 2 -4 40 22 55 50 82 75 74 14 -4 18 -2 14 5 -4 6 -18 11 -31 11 -27 0 -55
-35 -76 -92 -12 -35 -16 -38 -50 -38 l-37 0 15 40 c22 55 50 82 75 74 14 -4
18 -2 14 5 -13 21 -54 12 -74 -16z m-123 -2 c34 -22 -34 -65 -82 -53 -26 7
-16 24 24 44 39 21 39 21 58 9z m151 -131 c0 -31 -47 -127 -79 -161 -40 -41
-68 -52 -56 -21 3 9 20 56 37 105 30 86 31 87 64 87 19 0 34 -4 34 -10z m410
-3 c0 -18 -39 -53 -67 -62 -30 -9 -29 6 3 44 26 32 64 42 64 18z m-470 -174
c-1 -18 -17 -32 -45 -38 l-30 -8 35 26 c41 30 40 29 40 20z m-127 -85 c-22
-39 -68 -47 -68 -13 0 20 37 45 68 45 18 0 18 -1 0 -32z m107 23 c0 -4 -9 -20
-21 -35 -31 -39 -79 -33 -63 9 10 26 84 49 84 26z"/>
<path d="M2700 2520 c0 -5 5 -10 10 -10 6 0 10 5 10 10 0 6 -4 10 -10 10 -5 0
-10 -4 -10 -10z"/>
<path d="M1130 2180 l0 -261 23 3 22 3 0 255 0 255 -22 3 -23 3 0 -261z"/>
</g>
</svg>
